<svg width="170" height="163" viewBox="0 0 170 163" fill="none" xmlns="http://www.w3.org/2000/svg">
<path fill-rule="evenodd" clip-rule="evenodd" d="M121.998 10.8075C122.365 6.30758 119.63 1.97498 115.151 0.502866C109.905 -1.22191 104.253 1.63311 102.529 6.87972C90.8869 42.293 79.887 67.1689 65.2385 87.7649C50.6585 108.265 32.0571 125.09 4.407 143.751C-0.170876 146.84 -1.37745 153.056 1.71204 157.634C4.80153 162.212 11.0172 163.418 15.595 160.329C33.9338 147.952 48.9525 136.016 61.6769 123.04L102.001 123.04V152.04C102.001 157.563 106.478 162.04 112.001 162.04C117.524 162.04 122.001 157.563 122.001 152.04V123.04H150.001V152.04C150.001 157.563 154.478 162.04 160.001 162.04C165.524 162.04 170.001 157.563 170.001 152.04V50.0397C170.001 44.5168 165.524 40.0397 160.001 40.0397C154.478 40.0397 150.001 44.5168 150.001 50.0397V103.04H122.001L122.001 11.0397C122.001 10.9621 122 10.8847 121.998 10.8075ZM102.001 103.04V63.7878C95.8656 76.8883 89.2074 88.5715 81.5367 99.3567C80.6542 100.598 79.7594 101.825 78.8517 103.04L102.001 103.04Z" fill="#303030"/>
</svg>
