<?xml version="1.0" encoding="UTF-8"?><svg id="Layer_1" xmlns="http://www.w3.org/2000/svg" viewBox="0 0 431 486"><defs><style>.cls-1{fill:#f2f2f2;}.cls-2{fill:#e6e6e6;}.cls-3{fill:#fff;}.cls-4{fill:#b3b3b3;}.cls-5{fill:#ccc;}.cls-6{fill:gray;}</style></defs><g><rect class="cls-3" x="1" y="1" width="429" height="484" rx="14" ry="14"/><path class="cls-4" d="M416,2c7.17,0,13,5.83,13,13V471c0,7.17-5.83,13-13,13H15c-7.17,0-13-5.83-13-13V15C2,7.83,7.83,2,15,2H416m0-2H15C6.72,0,0,6.72,0,15V471c0,8.28,6.72,15,15,15H416c8.28,0,15-6.72,15-15V15c0-8.28-6.72-15-15-15h0Z"/></g><circle class="cls-6" cx="22.5" cy="16.5" r="5.5"/><circle class="cls-5" cx="39.5" cy="16.5" r="5.5"/><circle class="cls-2" cx="55.5" cy="16.5" r="5.5"/><rect class="cls-4" x="34" y="63" width="190" height="24"/><rect class="cls-5" x="282" y="107" width="117" height="20"/><rect class="cls-2" x="369" y="27" width="29" height="13"/><rect class="cls-2" x="335" y="27" width="29" height="13"/><rect class="cls-2" x="253" y="27" width="68" height="13"/><rect class="cls-2" x="166" y="27" width="68" height="13"/><rect class="cls-2" x="282" y="146.33" width="53" height="15.67"/><rect class="cls-2" x="348" y="146.33" width="27" height="15.67"/><rect class="cls-1" x="282" y="175" width="116" height="16"/><rect class="cls-1" x="247" y="430" width="151" height="23"/><rect class="cls-1" x="34" y="430" width="184" height="23"/><rect class="cls-1" x="34" y="321" width="260" height="26"/><rect class="cls-1" x="34" y="366" width="139" height="7"/><rect class="cls-1" x="97" y="385" width="139" height="7"/><rect class="cls-1" x="184" y="366" width="85" height="7"/><rect class="cls-1" x="34" y="405" width="85" height="7"/><rect class="cls-1" x="280" y="366" width="50" height="7"/><rect class="cls-1" x="139" y="405" width="50" height="7"/><rect class="cls-1" x="34" y="385" width="50" height="7"/><rect class="cls-1" x="209" y="405" width="50" height="7"/><rect class="cls-6" x="281" y="227" width="119" height="35" rx="17.5" ry="17.5"/><rect class="cls-2" x="34" y="107" width="219" height="186"/></svg>